<?xml version="1.0" encoding="utf-8"?>
<!-- Generator: Adobe Illustrator 16.0.0, SVG Export Plug-In . SVG Version: 6.00 Build 0)  -->
<!DOCTYPE svg PUBLIC "-//W3C//DTD SVG 1.1//EN" "http://www.w3.org/Graphics/SVG/1.1/DTD/svg11.dtd">
<svg version="1.1" id="Layer_1" xmlns="http://www.w3.org/2000/svg" xmlns:xlink="http://www.w3.org/1999/xlink" x="0px" y="0px"
	 width="2000px" height="2000px" viewBox="0 0 2000 2000" enable-background="new 0 0 2000 2000" xml:space="preserve">
<rect fill="#1F1F1F" width="2000" height="2000"/>
<g>
	<rect x="569.549" y="732.938" fill="none" width="1225.812" height="376.115"/>
	<path fill="#FFFFFF" d="M895.458,871.17l-86.513,174.857h-42.57L680.32,871.17v201.406h-71.407v-319.96h96.583l82.393,175.771
		l82.851-175.771h96.125v319.96h-71.407V871.17z"/>
	<path fill="#FFFFFF" d="M1192.527,1009.408c35.09,0,63.777-13.883,86.055-41.655l45.775,47.147
		c-36.32,40.896-79.117,61.338-128.396,61.338c-49.285,0-89.875-15.564-121.759-46.689c-31.892-31.127-47.833-70.414-47.833-117.869
		c0-47.447,16.249-87.042,48.748-118.783c32.5-31.734,72.244-47.605,119.242-47.605c52.482,0,96.426,19.991,131.828,59.964
		l-44.4,50.352c-22.586-28.072-50.658-42.112-84.225-42.112c-26.855,0-49.822,8.776-68.889,26.32
		c-19.076,17.551-28.609,41.196-28.609,70.95c0,29.753,8.998,53.634,27.006,71.636
		C1145.072,1000.41,1166.895,1009.408,1192.527,1009.408z"/>
	<path fill="#FFFFFF" d="M1667.201,871.17l-86.514,174.857h-42.568l-86.057-174.857v201.406h-71.406v-319.96h96.582l82.395,175.771
		l82.85-175.771h96.125v319.96h-71.406V871.17z"/>
</g>
<rect x="475.44" y="647.013" fill="#FFFFFF" width="71.303" height="519.356"/>
<rect x="475.44" y="647.013" fill="#FFFFFF" width="133.508" height="49.59"/>
<path fill="#FFFFFF" d="M360.127,979.753c-103.065,0-186.617,83.549-186.617,186.616c0,103.064,83.551,186.617,186.617,186.617
	s186.617-83.553,186.617-186.617C546.744,1063.303,463.192,979.753,360.127,979.753z M360.127,1281.686
	c-63.687,0-115.315-51.629-115.315-115.318c0-63.686,51.628-115.314,115.315-115.314s115.313,51.629,115.313,115.314
	C475.44,1230.057,423.814,1281.686,360.127,1281.686z"/>
<rect x="608.949" y="1138.199" fill="#FFFFFF" width="1129.458" height="56.34"/>
<g>
</g>
<g>
</g>
<g>
</g>
<g>
</g>
<g>
</g>
<g>
</g>
</svg>
