<?xml version="1.0" encoding="utf-8"?>
<!-- Generator: Adobe Illustrator 16.0.0, SVG Export Plug-In . SVG Version: 6.00 Build 0)  -->
<!DOCTYPE svg PUBLIC "-//W3C//DTD SVG 1.1//EN" "http://www.w3.org/Graphics/SVG/1.1/DTD/svg11.dtd">
<svg version="1.1" id="Layer_1" xmlns="http://www.w3.org/2000/svg" xmlns:xlink="http://www.w3.org/1999/xlink" x="0px" y="0px"
	 width="2000px" height="2000px" viewBox="0 0 2000 2000" enable-background="new 0 0 2000 2000" xml:space="preserve">
<rect fill="#1F1F1F" width="2000" height="2000"/>
<rect x="1172.496" y="276.969" fill="#FFFFFF" width="146.047" height="1063.811"/>
<rect x="1172.496" y="276.969" fill="#FFFFFF" width="273.46" height="101.574"/>
<path fill="#FFFFFF" d="M936.293,958.524c-211.109,0-382.25,171.142-382.25,382.25c0,211.106,171.14,382.258,382.25,382.258
	c211.115,0,382.25-171.151,382.25-382.258C1318.543,1129.666,1147.408,958.524,936.293,958.524z M936.293,1576.981
	c-130.451,0-236.201-105.76-236.201-236.215c0-130.442,105.75-236.193,236.201-236.193c130.455,0,236.203,105.751,236.203,236.193
	C1172.496,1471.222,1066.748,1576.981,936.293,1576.981z"/>
<g>
</g>
<g>
</g>
<g>
</g>
<g>
</g>
<g>
</g>
<g>
</g>
</svg>
