<?xml version="1.0" encoding="utf-8"?>
<!-- Generator: Adobe Illustrator 16.0.0, SVG Export Plug-In . SVG Version: 6.00 Build 0)  -->
<!DOCTYPE svg PUBLIC "-//W3C//DTD SVG 1.1//EN" "http://www.w3.org/Graphics/SVG/1.1/DTD/svg11.dtd">
<svg version="1.1" id="Layer_1" xmlns="http://www.w3.org/2000/svg" xmlns:xlink="http://www.w3.org/1999/xlink" x="0px" y="0px"
	 width="2000px" height="2000px" viewBox="0 0 2000 2000" enable-background="new 0 0 2000 2000" xml:space="preserve">
<rect fill="#1F1F1F" width="2000" height="2000"/>
<g>
	<rect x="189.977" y="822.236" fill="none" width="1713.143" height="106.818"/>
	<path fill="#FFFFFF" d="M282.537,861.495l-24.57,49.66h-12.09l-24.44-49.66v57.2h-20.28v-90.87h27.43l23.4,49.92l23.53-49.92h27.3
		v90.87h-20.28V861.495z"/>
	<path fill="#FFFFFF" d="M368.336,886.455v-37.7h19.63v69.94h-19.63v-9.23c-4.854,6.847-11.115,10.27-18.785,10.27
		c-7.67,0-14.105-2.405-19.305-7.215c-5.2-4.81-7.8-11.938-7.8-21.385v-42.38h19.63v38.09c0,10.748,3.942,16.12,11.83,16.12
		c3.9,0,7.28-1.408,10.14-4.225C366.906,895.924,368.336,891.83,368.336,886.455z"/>
	<path fill="#FFFFFF" d="M459.076,896.92c0,6.89-2.535,12.415-7.605,16.575c-5.07,4.16-11.505,6.24-19.305,6.24
		c-5.2,0-10.618-0.933-16.25-2.795c-5.635-1.863-10.705-4.615-15.21-8.255l8.58-12.22c7.28,5.635,15.036,8.45,23.27,8.45
		c2.513,0,4.505-0.498,5.98-1.495c1.473-0.996,2.21-2.318,2.21-3.965c0-1.645-1.02-3.163-3.055-4.55
		c-2.038-1.385-4.985-2.685-8.84-3.9c-3.857-1.213-6.805-2.253-8.84-3.12c-2.037-0.865-4.355-2.123-6.955-3.77
		c-5.287-3.292-7.93-8.167-7.93-14.625c0-6.455,2.6-11.72,7.8-15.795c5.2-4.073,11.916-6.11,20.15-6.11
		c8.233,0,16.465,2.774,24.7,8.32l-7.28,13c-6.067-4.16-12.112-6.24-18.135-6.24c-6.025,0-9.035,1.647-9.035,4.94
		c0,1.82,0.953,3.25,2.86,4.29c1.905,1.04,5.07,2.254,9.49,3.64c4.42,1.388,7.561,2.45,9.425,3.185
		c1.863,0.737,4.095,1.885,6.695,3.445C456.648,885.112,459.076,890.03,459.076,896.92z"/>
	<path fill="#FFFFFF" d="M475.649,839.85c-2.21-2.21-3.315-4.917-3.315-8.125c0-3.205,1.105-5.915,3.315-8.125
		c2.21-2.21,4.917-3.315,8.125-3.315c3.206,0,5.915,1.105,8.125,3.315c2.21,2.21,3.315,4.92,3.315,8.125
		c0,3.208-1.105,5.915-3.315,8.125c-2.21,2.21-4.919,3.315-8.125,3.315C480.567,843.165,477.859,842.06,475.649,839.85z
		 M493.524,918.695h-19.5v-69.94h19.5V918.695z"/>
	<path fill="#FFFFFF" d="M545.523,902.445c6.5,0,12.35-3.25,17.55-9.75l11.57,13c-9.015,9.36-18.765,14.04-29.25,14.04
		c-10.487,0-19.35-3.315-26.585-9.945c-7.237-6.63-10.855-15.295-10.855-26c0-10.703,3.66-19.413,10.985-26.13
		c7.323-6.715,16.01-10.075,26.065-10.075c5.025,0,10.118,1.04,15.275,3.12c5.155,2.08,9.685,5.158,13.585,9.23l-10.14,13.26
		c-2.255-2.686-5.005-4.765-8.255-6.24c-3.25-1.473-6.479-2.21-9.685-2.21c-5.114,0-9.512,1.67-13.195,5.005
		c-3.685,3.337-5.525,7.975-5.525,13.91c0,5.938,1.84,10.553,5.525,13.845C536.271,900.799,540.583,902.445,545.523,902.445z"/>
	<path fill="#FFFFFF" d="M631.322,900.755c9.965,0,18.112-3.943,24.44-11.83l13,13.39c-10.315,11.615-22.47,17.42-36.465,17.42
		c-13.997,0-25.524-4.42-34.58-13.26c-9.058-8.84-13.585-19.998-13.585-33.475c0-13.476,4.615-24.721,13.845-33.735
		c9.23-9.013,20.518-13.52,33.865-13.52c14.905,0,27.385,5.678,37.44,17.03l-12.61,14.3c-6.415-7.973-14.387-11.96-23.92-11.96
		c-7.627,0-14.149,2.492-19.565,7.475c-5.417,4.985-8.125,11.7-8.125,20.15c0,8.45,2.555,15.232,7.67,20.345
		C617.844,898.2,624.042,900.755,631.322,900.755z"/>
	<path fill="#FFFFFF" d="M750.011,883.725c0,10.14-3.51,18.678-10.53,25.61c-7.02,6.935-15.84,10.4-26.455,10.4
		c-10.617,0-19.435-3.465-26.455-10.4c-7.02-6.933-10.53-15.47-10.53-25.61c0-10.14,3.51-18.697,10.53-25.675
		c7.02-6.975,15.838-10.465,26.455-10.465c10.615,0,19.435,3.49,26.455,10.465C746.501,865.027,750.011,873.585,750.011,883.725z
		 M695.671,883.725c0,5.72,1.625,10.38,4.875,13.975c3.25,3.598,7.41,5.395,12.48,5.395s9.23-1.797,12.48-5.395
		c3.25-3.595,4.875-8.255,4.875-13.975c0-5.72-1.625-10.4-4.875-14.04c-3.25-3.64-7.41-5.46-12.48-5.46s-9.23,1.82-12.48,5.46
		C697.296,873.325,695.671,878.005,695.671,883.725z"/>
	<path fill="#FFFFFF" d="M783.939,879.695v39h-19.5v-69.94h19.5v7.8c5.893-5.98,12.522-8.97,19.89-8.97
		c7.365,0,13.54,2.6,18.525,7.8c4.982,5.2,7.475,12.135,7.475,20.8v42.51h-19.5v-39.52c0-10.745-3.945-16.12-11.83-16.12
		c-3.9,0-7.302,1.41-10.205,4.225C785.39,870.097,783.939,874.235,783.939,879.695z"/>
	<path fill="#FFFFFF" d="M867.008,879.695v39h-19.5v-69.94h19.5v7.8c5.893-5.98,12.522-8.97,19.89-8.97
		c7.365,0,13.54,2.6,18.525,7.8c4.982,5.2,7.475,12.135,7.475,20.8v42.51h-19.5v-39.52c0-10.745-3.945-16.12-11.83-16.12
		c-3.9,0-7.302,1.41-10.205,4.225C868.458,870.097,867.008,874.235,867.008,879.695z"/>
	<path fill="#FFFFFF" d="M991.157,908.555c-7.887,7.455-17.14,11.18-27.755,11.18c-10.617,0-19.392-3.271-26.324-9.815
		c-6.936-6.543-10.4-15.318-10.4-26.325c0-11.005,3.53-19.76,10.595-26.26c7.063-6.5,15.405-9.75,25.025-9.75
		s17.787,2.905,24.505,8.71c6.715,5.807,10.075,13.78,10.075,23.92v10.4h-50.96c0.605,3.815,2.6,6.935,5.979,9.36
		c3.38,2.428,7.192,3.64,11.44,3.64c6.845,0,12.479-2.295,16.899-6.89L991.157,908.555z M972.437,867.085
		c-2.688-2.253-5.96-3.38-9.814-3.38c-3.857,0-7.39,1.17-10.596,3.51c-3.207,2.34-5.069,5.505-5.59,9.49h30.68
		C976.682,872.545,975.123,869.339,972.437,867.085z"/>
	<path fill="#FFFFFF" d="M1044.457,902.445c6.5,0,12.35-3.25,17.551-9.75l11.568,13c-9.014,9.36-18.764,14.04-29.25,14.04
		s-19.35-3.315-26.584-9.945c-7.238-6.63-10.855-15.295-10.855-26c0-10.703,3.66-19.413,10.984-26.13
		c7.324-6.715,16.012-10.075,26.066-10.075c5.025,0,10.117,1.04,15.275,3.12c5.154,2.08,9.684,5.158,13.584,9.23l-10.141,13.26
		c-2.254-2.686-5.004-4.765-8.254-6.24c-3.25-1.473-6.48-2.21-9.686-2.21c-5.115,0-9.512,1.67-13.195,5.005
		c-3.684,3.337-5.525,7.975-5.525,13.91c0,5.938,1.842,10.553,5.525,13.845C1035.205,900.799,1039.518,902.445,1044.457,902.445z"/>
	<path fill="#FFFFFF" d="M1109.846,862.795v31.33c0,2.687,0.691,4.79,2.08,6.305c1.385,1.518,3.031,2.275,4.939,2.275
		c3.641,0,6.715-1.645,9.23-4.94l7.279,13.65c-6.066,5.547-12.459,8.32-19.174,8.32c-6.719,0-12.396-2.21-17.031-6.63
		c-4.637-4.42-6.955-10.443-6.955-18.07v-32.24h-8.189v-14.04h8.189v-20.93h19.631v20.93h16.9v14.04H1109.846z"/>
	<path fill="#FFFFFF" d="M1145.398,839.85c-2.211-2.21-3.314-4.917-3.314-8.125c0-3.205,1.104-5.915,3.314-8.125
		c2.211-2.21,4.918-3.315,8.125-3.315c3.205,0,5.914,1.105,8.125,3.315c2.211,2.21,3.314,4.92,3.314,8.125
		c0,3.208-1.104,5.915-3.314,8.125c-2.211,2.21-4.92,3.315-8.125,3.315C1150.316,843.165,1147.609,842.06,1145.398,839.85z
		 M1163.273,918.695h-19.5v-69.94h19.5V918.695z"/>
	<path fill="#FFFFFF" d="M1251.672,883.725c0,10.14-3.51,18.678-10.529,25.61c-7.02,6.935-15.84,10.4-26.455,10.4
		c-10.617,0-19.436-3.465-26.455-10.4c-7.02-6.933-10.529-15.47-10.529-25.61c0-10.14,3.51-18.697,10.529-25.675
		c7.02-6.975,15.838-10.465,26.455-10.465c10.615,0,19.436,3.49,26.455,10.465C1248.162,865.027,1251.672,873.585,1251.672,883.725z
		 M1197.332,883.725c0,5.72,1.625,10.38,4.875,13.975c3.25,3.598,7.41,5.395,12.48,5.395s9.23-1.797,12.48-5.395
		c3.25-3.595,4.875-8.255,4.875-13.975c0-5.72-1.625-10.4-4.875-14.04c-3.25-3.64-7.41-5.46-12.48-5.46s-9.23,1.82-12.48,5.46
		C1198.957,873.325,1197.332,878.005,1197.332,883.725z"/>
	<path fill="#FFFFFF" d="M1285.602,879.695v39h-19.5v-69.94h19.5v7.8c5.893-5.98,12.521-8.97,19.889-8.97
		c7.365,0,13.541,2.6,18.525,7.8c4.982,5.2,7.475,12.135,7.475,20.8v42.51h-19.5v-39.52c0-10.745-3.943-16.12-11.83-16.12
		c-3.9,0-7.303,1.41-10.205,4.225C1287.051,870.097,1285.602,874.235,1285.602,879.695z"/>
	<path fill="#FFFFFF" d="M1432.5,861.495l-24.57,49.66h-12.09l-24.439-49.66v57.2h-20.281v-90.87h27.432l23.398,49.92l23.531-49.92
		h27.299v90.87H1432.5V861.495z"/>
	<path fill="#FFFFFF" d="M1532.6,918.695h-18.33v-8.45c-5.027,6.328-11.244,9.49-18.654,9.49s-13.631-2.145-18.656-6.435
		c-5.027-4.29-7.539-10.01-7.539-17.16c0-7.15,2.6-12.5,7.799-16.055c5.201-3.553,12.307-5.33,21.32-5.33h14.561v-0.39
		c0-7.453-3.945-11.18-11.83-11.18c-3.381,0-6.955,0.672-10.725,2.015c-3.77,1.345-6.955,3.013-9.555,5.005l-8.711-12.61
		c9.186-6.672,19.672-10.01,31.461-10.01c8.492,0,15.424,2.125,20.799,6.37c5.373,4.248,8.061,10.965,8.061,20.15V918.695z
		 M1512.969,892.045v-3.38h-12.219c-7.801,0-11.701,2.427-11.701,7.28c0,2.515,0.932,4.442,2.795,5.785
		c1.863,1.345,4.529,2.015,7.996,2.015c3.465,0,6.52-1.06,9.164-3.185C1511.646,898.437,1512.969,895.6,1512.969,892.045z"/>
	<path fill="#FFFFFF" d="M1583.947,902.445c6.5,0,12.352-3.25,17.551-9.75l11.57,13c-9.016,9.36-18.766,14.04-29.25,14.04
		c-10.488,0-19.35-3.315-26.586-9.945c-7.236-6.63-10.854-15.295-10.854-26c0-10.703,3.66-19.413,10.984-26.13
		c7.322-6.715,16.01-10.075,26.064-10.075c5.025,0,10.117,1.04,15.275,3.12c5.156,2.08,9.686,5.158,13.586,9.23l-10.141,13.26
		c-2.256-2.686-5.006-4.765-8.256-6.24c-3.25-1.473-6.479-2.21-9.684-2.21c-5.115,0-9.514,1.67-13.195,5.005
		c-3.686,3.337-5.525,7.975-5.525,13.91c0,5.938,1.84,10.553,5.525,13.845C1574.695,900.799,1579.008,902.445,1583.947,902.445z"/>
	<path fill="#FFFFFF" d="M1645.566,880.995v37.7h-19.5v-96.46h19.5v34.32c5.893-5.98,12.5-8.97,19.824-8.97s13.498,2.6,18.525,7.8
		c5.025,5.2,7.541,12.135,7.541,20.8v42.51h-19.5v-38.22c0-10.745-3.945-16.12-11.83-16.12c-3.9,0-7.303,1.41-10.205,4.225
		C1647.018,871.397,1645.566,875.535,1645.566,880.995z"/>
	<path fill="#FFFFFF" d="M1710.762,839.85c-2.211-2.21-3.316-4.917-3.316-8.125c0-3.205,1.105-5.915,3.316-8.125
		c2.209-2.21,4.916-3.315,8.125-3.315c3.205,0,5.914,1.105,8.125,3.315c2.209,2.21,3.314,4.92,3.314,8.125
		c0,3.208-1.105,5.915-3.314,8.125c-2.211,2.21-4.92,3.315-8.125,3.315C1715.678,843.165,1712.971,842.06,1710.762,839.85z
		 M1728.637,918.695h-19.5v-69.94h19.5V918.695z"/>
	<path fill="#FFFFFF" d="M1766.596,879.695v39h-19.5v-69.94h19.5v7.8c5.893-5.98,12.521-8.97,19.889-8.97
		c7.365,0,13.541,2.6,18.525,7.8c4.982,5.2,7.475,12.135,7.475,20.8v42.51h-19.5v-39.52c0-10.745-3.943-16.12-11.83-16.12
		c-3.9,0-7.303,1.41-10.205,4.225C1768.045,870.097,1766.596,874.235,1766.596,879.695z"/>
	<path fill="#FFFFFF" d="M1890.744,908.555c-7.887,7.455-17.141,11.18-27.756,11.18c-10.617,0-19.391-3.271-26.324-9.815
		c-6.936-6.543-10.4-15.318-10.4-26.325c0-11.005,3.531-19.76,10.596-26.26c7.063-6.5,15.404-9.75,25.025-9.75
		c9.619,0,17.787,2.905,24.504,8.71c6.715,5.807,10.076,13.78,10.076,23.92v10.4h-50.961c0.605,3.815,2.6,6.935,5.98,9.36
		c3.379,2.428,7.191,3.64,11.439,3.64c6.846,0,12.48-2.295,16.9-6.89L1890.744,908.555z M1872.023,867.085
		c-2.688-2.253-5.959-3.38-9.814-3.38c-3.857,0-7.389,1.17-10.596,3.51s-5.068,5.505-5.59,9.49h30.68
		C1876.27,872.545,1874.709,869.339,1872.023,867.085z"/>
</g>
<rect x="163.25" y="797.833" fill="#FFFFFF" width="20.25" height="147.5"/>
<rect x="163.25" y="797.833" fill="#FFFFFF" width="37.917" height="14.083"/>
<path fill="#FFFFFF" d="M130.5,892.333c-29.271,0-53,23.729-53,53s23.729,53,53,53s53-23.729,53-53S159.771,892.333,130.5,892.333z
	 M130.5,978.083c-18.087,0-32.75-14.663-32.75-32.751c0-18.087,14.663-32.75,32.75-32.75s32.75,14.663,32.75,32.75
	C163.25,963.42,148.587,978.083,130.5,978.083z"/>
<rect x="201.167" y="937.333" fill="#FFFFFF" width="1697.208" height="16.001"/>
<g>
</g>
<g>
</g>
<g>
</g>
<g>
</g>
<g>
</g>
<g>
</g>
</svg>
