<?xml version="1.0" encoding="utf-8"?>
<!-- Generator: Adobe Illustrator 16.0.0, SVG Export Plug-In . SVG Version: 6.00 Build 0)  -->
<!DOCTYPE svg PUBLIC "-//W3C//DTD SVG 1.1//EN" "http://www.w3.org/Graphics/SVG/1.1/DTD/svg11.dtd">
<svg version="1.1" id="Layer_1" xmlns="http://www.w3.org/2000/svg" xmlns:xlink="http://www.w3.org/1999/xlink" x="0px" y="0px"
	 width="1564.896px" height="705.973px" viewBox="0 0 1564.896 705.973" enable-background="new 0 0 1564.896 705.973"
	 xml:space="preserve">
<g>
	<rect x="396.039" y="85.925" fill="none" width="1225.812" height="376.115"/>
	<path d="M721.947,224.157l-86.513,174.857h-42.57L506.81,224.157v201.406h-71.407v-319.96h96.583l82.393,175.771l82.851-175.771
		h96.125v319.96h-71.407V224.157z"/>
	<path d="M1019.017,362.395c35.09,0,63.777-13.883,86.055-41.655l45.775,47.147c-36.32,40.896-79.117,61.338-128.396,61.338
		c-49.285,0-89.875-15.564-121.759-46.689c-31.892-31.127-47.833-70.414-47.833-117.869c0-47.447,16.249-87.042,48.748-118.783
		c32.5-31.734,72.244-47.605,119.242-47.605c52.482,0,96.426,19.991,131.828,59.964l-44.4,50.352
		c-22.586-28.072-50.658-42.112-84.225-42.112c-26.855,0-49.822,8.776-68.889,26.32c-19.076,17.551-28.609,41.196-28.609,70.95
		c0,29.753,8.998,53.634,27.006,71.636C971.562,353.397,993.384,362.395,1019.017,362.395z"/>
	<path d="M1493.691,224.157l-86.514,174.857h-42.568l-86.057-174.857v201.406h-71.406v-319.96h96.582l82.395,175.771l82.85-175.771
		h96.125v319.96h-71.406V224.157z"/>
</g>
<rect x="301.93" width="71.303" height="519.356"/>
<rect x="301.93" width="133.508" height="49.59"/>
<path d="M186.617,332.74C83.551,332.74,0,416.29,0,519.356C0,622.42,83.551,705.973,186.617,705.973s186.617-83.553,186.617-186.617
	C373.233,416.29,289.682,332.74,186.617,332.74z M186.617,634.672c-63.687,0-115.315-51.629-115.315-115.318
	c0-63.686,51.628-115.314,115.315-115.314S301.93,455.668,301.93,519.354C301.93,583.043,250.304,634.672,186.617,634.672z"/>
<rect x="435.438" y="491.186" width="1129.458" height="56.34"/>
<g>
</g>
<g>
</g>
<g>
</g>
<g>
</g>
<g>
</g>
<g>
</g>
</svg>
