<?xml version="1.0" encoding="utf-8"?>
<!-- Generator: Adobe Illustrator 16.0.0, SVG Export Plug-In . SVG Version: 6.00 Build 0)  -->
<!DOCTYPE svg PUBLIC "-//W3C//DTD SVG 1.1//EN" "http://www.w3.org/Graphics/SVG/1.1/DTD/svg11.dtd">
<svg version="1.1" id="Layer_1" xmlns="http://www.w3.org/2000/svg" xmlns:xlink="http://www.w3.org/1999/xlink" x="0px" y="0px"
	 width="891.912px" height="1446.063px" viewBox="0 0 891.912 1446.063" enable-background="new 0 0 891.912 1446.063"
	 xml:space="preserve">
<rect x="618.452" width="146.047" height="1063.811"/>
<rect x="618.452" width="273.46" height="101.574"/>
<path d="M382.25,681.555C171.14,681.555,0,852.697,0,1063.805c0,211.106,171.14,382.258,382.25,382.258
	c211.115,0,382.25-171.151,382.25-382.258C764.499,852.697,593.364,681.555,382.25,681.555z M382.25,1300.013
	c-130.451,0-236.201-105.76-236.201-236.215c0-130.442,105.75-236.193,236.201-236.193c130.455,0,236.203,105.751,236.203,236.193
	C618.452,1194.253,512.704,1300.013,382.25,1300.013z"/>
<g>
</g>
<g>
</g>
<g>
</g>
<g>
</g>
<g>
</g>
<g>
</g>
</svg>
