<?xml version="1.0" encoding="UTF-8"?>
<svg width="44px" height="45px" viewBox="0 0 44 45" version="1.1" xmlns="http://www.w3.org/2000/svg" xmlns:xlink="http://www.w3.org/1999/xlink">
    <title>Search Icon</title>
    <desc>Created with Sketch.</desc>
    <defs></defs>
    <g id="MusicConnectionMachine" stroke="none" stroke-width="1" fill="none" fill-rule="evenodd">
        <g id="Desktop-HD" transform="translate(-1005.000000, -498.000000)" fill="#ECF0F1">
            <g id="Searchbar" transform="translate(359.000000, 489.000000)">
                <g id="Search-Icon" transform="translate(646.000000, 9.000000)">
                    <path d="M43.55805,42.0732 L31.48155,29.9997 C37.40535,22.9509 37.10655,12.4512 30.50595,5.85045 C23.53035,-1.12515 12.20745,-1.12515 5.2317,5.85045 C-1.7439,12.82605 -1.7439,24.14895 5.2317,31.1247 C8.6829,34.5759 13.33245,36.3747 17.9052,36.3747 C22.0302,36.3747 26.0787,34.9509 29.4537,32.1735 L41.5302,44.25 L43.55805,42.0732 Z M7.3323,29.0247 C1.5579,23.2503 1.5579,13.79895 7.3323,8.0247 C10.2561,5.1009 14.0061,3.6741 17.8323,3.6741 C21.6585,3.6741 25.48155,5.0979 28.3323,8.0247 C34.1067,13.7991 34.1067,23.25045 28.3323,29.0247 C22.5579,34.79895 13.10655,34.7991 7.3323,29.0247 L7.3323,29.0247 Z" id="Page-1"></path>
                    <path d="M19.2958958,8.25 L18.028044,8.25 L18.0941785,22.0835127 C17.4562265,21.4770061 16.5214527,21.0366462 15.4777864,21.0366462 C13.5566418,21.0366462 12,22.3061084 12,23.9078227 C12,25.5087731 13.5566005,26.8330945 15.4777864,26.8330945 C17.3820004,26.8330945 18.9272863,25.5458758 18.9547469,24.0013538 L19.2958978,24.0013538 L19.2958978,23.8844069 L19.0926526,14.7109752 C19.539475,15.4110335 20.2427543,16.2377201 21.658253,17.2966032 C24.4899937,19.4154018 22.4188071,21.6180274 22.4188071,21.6180274 C23.9245953,20.8897446 24.5714669,18.9807818 23.1599944,17.3409943 C24.3601032,16.230411 24.468975,14.127077 22.1905542,12.6035324 C19.4507485,10.7720145 19.2958958,8.26775645 19.2958958,8.25 Z M18.9121005,11.967292 L18.9080681,10.8615401 C19.3524542,11.5656452 20.1420587,12.3995789 21.5719484,13.4698799 C23.4277658,14.857918 23.1962919,16.2830382 22.8156018,17.0992155 C22.5841279,16.8685468 22.3107199,16.6427302 21.991331,16.4289921 C19.5331632,14.7852198 18.9975792,12.4438255 18.9121005,11.967292 Z" id="Page-1"></path>
                </g>
            </g>
        </g>
    </g>
</svg>
